<svg width="25" height="25" viewBox="0 0 40 40" fill="none" xmlns="http://www.w3.org/2000/svg">
<!-- <rect width="24" height="24" rx="10" fill="#797979" fill-opacity="0.55"/>
<rect width="24" height="24" transform="translate(5 4)" fill="#797979" fill-opacity="0.55"/> -->
<path d="M16.25 25.5625C15.7322 25.5625 15.3125 25.9822 15.3125 26.5C15.3125 27.0178 15.7322 27.4375 16.25 27.4375H23.75C24.2678 27.4375 24.6875 27.0178 24.6875 26.5C24.6875 25.9822 24.2678 25.5625 23.75 25.5625H16.25Z" fill="white"/>
<path fill-rule="evenodd" clip-rule="evenodd" d="M20 5.5625C19.1149 5.5625 18.3107 5.81602 17.4382 6.2403C16.5948 6.65043 15.6205 7.25511 14.4036 8.0104L11.8204 9.61362C10.6689 10.3283 9.7468 10.9005 9.03613 11.4448C8.30019 12.0084 7.73494 12.5824 7.32664 13.3283C6.91919 14.0727 6.73571 14.8647 6.64774 15.8009C6.56248 16.7082 6.56249 17.8176 6.5625 19.209V21.2248C6.56248 23.6047 6.56247 25.4832 6.75338 26.952C6.94922 28.4587 7.3607 29.6751 8.29045 30.6368C9.22448 31.6029 10.4131 32.0346 11.8845 32.2392C13.3106 32.4375 15.132 32.4375 17.4273 32.4375H22.5726C24.868 32.4375 26.6894 32.4375 28.1155 32.2392C29.5869 32.0346 30.7755 31.6029 31.7096 30.6368C32.6393 29.6751 33.0508 28.4587 33.2466 26.952C33.4375 25.4832 33.4375 23.6047 33.4375 21.2248V19.209C33.4375 17.8177 33.4375 16.7082 33.3523 15.8009C33.2643 14.8647 33.0808 14.0727 32.6734 13.3283C32.2651 12.5824 31.6998 12.0084 30.9639 11.4448C30.2532 10.9005 29.3312 10.3283 28.1797 9.61364L25.5964 8.01039C24.3795 7.25511 23.4052 6.65043 22.5618 6.2403C21.6893 5.81602 20.8851 5.5625 20 5.5625ZM15.3494 9.63015C16.6191 8.84213 17.5119 8.28942 18.2582 7.92649C18.9853 7.57291 19.5002 7.4375 20 7.4375C20.4998 7.4375 21.0147 7.57291 21.7418 7.92649C22.4881 8.28942 23.3809 8.84213 24.6506 9.63015L27.1506 11.1817C28.3516 11.9271 29.1949 12.4517 29.8239 12.9334C30.4358 13.4021 30.7879 13.7888 31.0286 14.2286C31.2702 14.6699 31.4112 15.1858 31.4855 15.9763C31.5615 16.7857 31.5625 17.8073 31.5625 19.2549V21.1562C31.5625 23.6199 31.5606 25.3765 31.3873 26.7103C31.217 28.0204 30.8962 28.7805 30.3615 29.3336C29.8311 29.8822 29.1089 30.208 27.8572 30.3821C26.5752 30.5604 24.8844 30.5625 22.5 30.5625H17.5C15.1156 30.5625 13.4248 30.5604 12.1428 30.3821C10.8911 30.208 10.1689 29.8822 9.63849 29.3336C9.10376 28.7805 8.78302 28.0204 8.61274 26.7103C8.43936 25.3765 8.4375 23.6199 8.4375 21.1562V19.2549C8.4375 17.8073 8.43845 16.7857 8.51451 15.9763C8.58879 15.1858 8.72981 14.6699 8.97136 14.2286C9.21207 13.7888 9.56416 13.4021 10.1761 12.9334C10.8051 12.4517 11.6484 11.9271 12.8494 11.1817L15.3494 9.63015Z" fill="white"/>
</svg>
